# xmcd
#
# Track frame offsets: 
#        150
#        21978
#        36564
#        48077
#        61877
#        76114
#        93377
#        105939
#        121952
#        135877
#        150427
#        168302
#        179077
#        199152
#        219927
#        239302
#        256577
#
# Disc length: 3654 seconds
#
# Revision: 1
# Processed by: cddbd v1.5.2PL0 Copyright (c) Steve Scherf et al.
# Submitted via: ExactAudioCopyFreeDBPlugin 1.0
#
DISCID=d10e4411
DTITLE=Various Artist - In The Mood For Blues (Perfect Tunes)
DYEAR=2007
DGENRE=Blues
TTITLE0=Keb Mo - More Than One Way Home
TTITLE1=JJ Cale_ - Right Down Here
TTITLE2=Ryan Adams - Sweet Black Magic
TTITLE3=Aaron Neville - Louisiana 1927
TTITLE4=Madeleine Peyroux - Don´t Wait To Long
TTITLE5=Lizz Wright - A Taste Of Honey
TTITLE6=Dinah Washington - Mad About A Boy
TTITLE7=Fontella Bass - The Soul Of A Man
TTITLE8=Ella Fitzgerald feat. Louis Armstrong - Dream A Little Dream
TTITLE9=Peggy Lee - A Woman Alone With The Blues
TTITLE10=Buddy Guy - Worried Mind
TTITLE11=Mose Allison - I Love The Life I Live
TTITLE12=Etta James - I´ve Got Dreams To Remember
TTITLE13=Donavon Frankenreiter - By Your Side
TTITLE14=The Robert Cray Band - Right Next Door
TTITLE15=Joan Armatrading - Down To Zero
TTITLE16=Chet Atkins and Mark Knopfler - Tears
EXTD=
EXTT0=
EXTT1=
EXTT2=
EXTT3=
EXTT4=
EXTT5=
EXTT6=
EXTT7=
EXTT8=
EXTT9=
EXTT10=
EXTT11=
EXTT12=
EXTT13=
EXTT14=
EXTT15=
EXTT16=
PLAYORDER=
